# xmcd
#
# Track frame offsets:
# 182
# 13002
# 40925
# 55307
# 71057
# 94382
# 107495
# 127067
# 142790
# 164295
#
# Disc length: 2572 seconds
#
#
# Revision: 0
# Processed by: cddbd v1.5.1PL2 Copyright (c) Steve Scherf et al.
# Submitted via: FreeRIP 2.944 
#
DISCID=880a0a0a
DTITLE=Garcia, Grisman, Rowan, Clements, and Kahn - OLD AND IN THE WAY
DYEAR=1973
DGENRE=Bluegrass
TTITLE0=PIG IN A PEN
TTITLE1=MIDNIGHT MOONLIGHT
TTITLE2=OLD AND IN THE WAY
TTITLE3=KNOCKIN' ON YOUR DOOR
TTITLE4=THE HOBO SONG
TTITLE5=PANAMA RED
TTITLE6=WILD HORSES
TTITLE7=KISSIMMEE KID
TTITLE8=WHITE DOVE
TTITLE9=LAND OF THE NAVAJO
EXTD=
EXTT0=
EXTT1=
EXTT2=
EXTT3=
EXTT4=
EXTT5=
EXTT6=
EXTT7=
EXTT8=
EXTT9=
PLAYORDER=
